<svg id="Layer_1" data-name="Layer 1" xmlns="http://www.w3.org/2000/svg" viewBox="0 0 321.113 84.203"><defs><style>.cls-1{fill:#ffffff;}.cls-2{fill:#ffffff;}</style></defs><path class="cls-1" d="M138.254,259.048a3.491,3.491,0,0,0,1.175-1.645q10.98-20.942,21.912-41.91a2.552,2.552,0,0,1,2.691-1.59q8.745.105,17.492,0a2.517,2.517,0,0,1,2.584,1.533q11.595,20.993,23.29,41.928a4.174,4.174,0,0,0,1.2,1.759,3.9,3.9,0,0,0,.95-1.557q10.542-20.979,21.036-41.982a2.62,2.62,0,0,1,2.787-1.683q17.825.092,35.649,0c1.352-.006,1.787.32,1.784,1.732q-.069,28.067,0,56.133c0,1.465-.5,1.722-1.814,1.7-5-.069-10-.094-14.992.011-1.575.034-2.04-.327-2.034-1.977.066-18.156.044-36.312.032-54.467a3.431,3.431,0,0,0-.241-2.02c-.7.4-.868,1.131-1.176,1.729q-14.138,27.465-28.223,54.956a2.769,2.769,0,0,1-2.919,1.78c-7.385-.087-14.772-.069-22.157-.011a2.379,2.379,0,0,1-2.448-1.452q-10.1-18.676-20.3-37.3c-.262-.481-.547-.949-.825-1.43-.766.359-.912,1.067-1.219,1.63q-10.1,18.484-20.149,37a2.491,2.491,0,0,1-2.557,1.558c-7.5-.072-14.994-.059-22.49-.01a2.192,2.192,0,0,1-2.3-1.383q-14.457-28.237-29-56.435c-.877-1.706-.868-1.715,1.122-1.716,5.609,0,11.218.043,16.826-.034a2.393,2.393,0,0,1,2.536,1.571q10.388,20.964,20.876,41.877C137.631,257.889,137.923,258.419,138.254,259.048Z" transform="translate(-95.444 -213.898)"/><path class="cls-1" d="M362.669,213.935c11.331,0,22.663.017,33.994-.006,7.521-.015,13.451,3.054,17.162,9.561,3.7,6.487,3.871,13.106-.908,19.33-.437.57-.543.947-.064,1.572,4.459,5.818,4.734,12.156,1.582,18.493-3.264,6.559-8.8,10.111-16.215,10.522-.609.034-1.221.034-1.832.034q-34.827,0-69.653.037c-1.531,0-1.94-.394-1.935-1.93q.081-27.906,0-55.812c0-1.5.436-1.84,1.876-1.833C338.674,213.959,350.672,213.935,362.669,213.935Zm6.623,36.488c-7.155,0-14.311-.013-21.467.011-1.486,0-3.4-.626-4.349.256-1.055.976-.173,2.944-.378,4.46s.35,1.948,1.9,1.942c16.03-.058,32.061-.035,48.092-.041a7.723,7.723,0,0,0,1.815-.134,3.177,3.177,0,0,0,1.836-5,3.684,3.684,0,0,0-3.319-1.5C385.378,250.439,377.335,250.424,369.292,250.423Zm-.011-13.945q11.988,0,23.974,0a10.8,10.8,0,0,0,1.5-.039,3.036,3.036,0,0,0-.091-6.027,14.856,14.856,0,0,0-1.663-.032H347.38c-4.293,0-4.24,0-4.3,4.352-.019,1.35.307,1.794,1.73,1.782C352.965,236.443,361.123,236.478,369.281,236.478Z" transform="translate(-95.444 -213.898)"/><path class="cls-1" d="M312.758,213.934q4.164,0,8.329,0c1.854,0,1.86.009,1.083,1.648-4.184,8.825-8.353,17.657-12.582,26.461a3.363,3.363,0,0,0-.036,3.259c4.237,8.8,8.4,17.635,12.581,26.461.788,1.663.777,1.676-1.014,1.678-5.608,0-11.216-.028-16.823.026a2.085,2.085,0,0,1-2.273-1.394c-2.74-6.008-5.57-11.975-8.389-17.947a5.4,5.4,0,0,1-.565-2.393q.036-7.743,0-15.487a5.533,5.533,0,0,1,.549-2.4c2.829-6.15,5.658-12.3,8.423-18.48a2.038,2.038,0,0,1,2.224-1.468C307.093,214,309.927,213.934,312.758,213.934Z" transform="translate(-95.444 -213.898)"/><path class="cls-2" d="M271.92,289.138a18.047,18.047,0,0,0-2.654,3.707c-1.623,2.444-1.586,2.443-3.253-.069a18.393,18.393,0,0,0-2.608-3.636c0,2.68-.017,4.979.009,7.277.009.843.031,1.493-1.164,1.486s-1.147-.7-1.143-1.516c.015-3.329-.012-6.658.024-9.987.006-.575-.4-1.484.655-1.584.839-.08,1.748-.294,2.339.743.8,1.395,1.8,2.672,2.575,4.079.79,1.441,1.283,1.09,1.955-.069.778-1.343,1.737-2.582,2.5-3.934.615-1.1,1.566-.938,2.464-.805,1,.147.614,1.045.62,1.632.035,3.328,0,6.657.028,9.986.008.878-.045,1.455-1.2,1.458-1.226,0-1.148-.7-1.143-1.51C271.93,294.126,271.92,291.857,271.92,289.138Z" transform="translate(-95.444 -213.898)"/><path class="cls-2" d="M291.109,291.276c0-1.776.029-3.553-.013-5.327-.021-.854.274-1.2,1.15-1.169,1.609.05,3.222-.041,4.829.037a3.773,3.773,0,0,1,3.552,4.883,2.04,2.04,0,0,0,.347,2.1,3.414,3.414,0,0,1,.351,3.91,3.826,3.826,0,0,1-3.492,2.171,15.446,15.446,0,0,1-2-.015c-.491-.061-1.442.422-1.331-.595.08-.732.229-1.735,1.422-1.717a18.331,18.331,0,0,0,2.162-.054,1.47,1.47,0,0,0,.006-2.921c-1.326-.088-2.661-.044-3.993-.043-.752,0-.695.569-.7,1.065-.01,1.11-.048,2.222.009,3.329.046.9-.46.971-1.147.965-.672-.006-1.191-.043-1.169-.954C291.141,295.051,291.109,293.163,291.109,291.276Zm4.391-1.114c.388,0,.777,0,1.165,0,1.011,0,1.784-.369,1.811-1.49s-.716-1.546-1.731-1.579c-.776-.026-1.553.013-2.329-.016-.671-.025-.972.191-1.035.931C293.207,290.066,293.268,290.165,295.5,290.162Z" transform="translate(-95.444 -213.898)"/><path class="cls-2" d="M289.448,291.363a6.774,6.774,0,0,1-13.548-.1,6.774,6.774,0,1,1,13.548.1Zm-6.815-4.555a4.592,4.592,0,0,0-4.462,4.481,4.49,4.49,0,0,0,4.57,4.51,4.414,4.414,0,0,0,4.425-4.614A4.542,4.542,0,0,0,282.633,286.808Z" transform="translate(-95.444 -213.898)"/><path class="cls-2" d="M367.769,291.329a6.774,6.774,0,0,1-13.547-.027,6.774,6.774,0,1,1,13.547.027Zm-6.722-4.519a4.6,4.6,0,0,0-4.555,4.387,4.518,4.518,0,0,0,4.478,4.6,4.412,4.412,0,0,0,4.517-4.523A4.534,4.534,0,0,0,361.047,286.81Z" transform="translate(-95.444 -213.898)"/><path class="cls-2" d="M259.454,291.271a6.774,6.774,0,0,1-13.548.088,6.774,6.774,0,1,1,13.548-.088Zm-2.282-.032a4.535,4.535,0,0,0-4.479-4.43,4.585,4.585,0,0,0-4.515,4.592,4.489,4.489,0,0,0,4.514,4.4A4.413,4.413,0,0,0,257.172,291.239Z" transform="translate(-95.444 -213.898)"/><path class="cls-2" d="M212.362,295.656c-1.154-.162-2.4-.128-2.967,1.671-.319,1.007-1.529.7-2.19.432-.752-.3,0-.943.188-1.362,1.539-3.5,3.154-6.972,4.678-10.481a1.624,1.624,0,0,1,1.744-1.152,1.671,1.671,0,0,1,1.791,1.1c1.5,3.456,3.109,6.87,4.6,10.332.2.462,1.184,1.2.143,1.6a1.614,1.614,0,0,1-2.335-.855c-1.034-2.511-2.2-4.966-3.333-7.437-.2-.44-.275-1.158-.769-1.185-.663-.036-.681.762-.915,1.227-.424.841-.774,1.719-1.175,2.572-.413.877-.114,1.235.814,1.208a6.352,6.352,0,0,1,1.493.043,1.7,1.7,0,0,1,1.177,1.806c.031.818-.839.4-1.318.474A13.024,13.024,0,0,1,212.362,295.656Z" transform="translate(-95.444 -213.898)"/><path class="cls-2" d="M316.771,291.4c0-1.719.045-3.44-.018-5.157-.037-1.018.182-1.527,1.356-1.479,2.105.084,4.216.046,6.323.013.8-.013,1.215.172,1.224,1.1.009.978-.388,1.248-1.292,1.215-1.385-.051-2.777.053-4.159-.03-1.4-.083-1.111.856-1.146,1.65-.037.823-.073,1.581,1.148,1.465.824-.078,1.673.071,2.492-.032,1.29-.163,1.521.683,1.6,1.6.1,1.21-.892.673-1.43.747a14.887,14.887,0,0,1-1.994.022c-1.714.008-2.281.828-1.8,2.474.182.618.609.553,1.031.557,1.442.015,2.886.051,4.326-.006.99-.038,1.206.42,1.22,1.3.015.984-.527,1.054-1.272,1.048-2.163-.019-4.327-.037-6.49.006-.875.017-1.16-.306-1.134-1.166C316.807,294.956,316.771,293.18,316.771,291.4Z" transform="translate(-95.444 -213.898)"/><path class="cls-2" d="M222.256,289.4c0-1.166.04-2.334-.013-3.5-.041-.9.347-1.129,1.187-1.126.867,0,1.17.319,1.168,1.175-.007,2.386-.036,4.778.112,7.157a2.955,2.955,0,0,0,2.908,2.69,3.093,3.093,0,0,0,3.18-2.4,8.271,8.271,0,0,0,.175-1.815c.022-1.888.039-3.777,0-5.664-.02-.878.318-1.152,1.175-1.143s1.183.329,1.169,1.183c-.037,2.22.063,4.446-.043,6.662a5.5,5.5,0,1,1-11-.056c-.05-1.052-.008-2.11-.008-3.165Z" transform="translate(-95.444 -213.898)"/><path class="cls-2" d="M332,298.086a6.71,6.71,0,0,1-3.344-.865c-.41-.236-1.309-.358-.794-1.108.382-.558.857-1.432,1.865-.791a3.622,3.622,0,0,0,2.678.643c.814-.153,1.531-.447,1.648-1.377.112-.888-.555-1.286-1.226-1.574-1.118-.479-2.31-.8-3.391-1.351-1.952-.99-2.63-2.347-2.252-4.149.361-1.719,1.671-2.761,3.739-2.974a6.3,6.3,0,0,1,3.694.741c.444.239,1.421.376.8,1.223-.431.589-.9,1.524-1.977.674a2.9,2.9,0,0,0-2.7-.4,1.593,1.593,0,0,0-1.253,1.394c-.088.734.439,1.133,1.006,1.369,1.02.425,2.1.716,3.118,1.139,2.082.862,3.124,2.547,2.772,4.377C336.02,296.93,334.269,298.139,332,298.086Z" transform="translate(-95.444 -213.898)"/><path class="cls-2" d="M348.35,298.086a6.634,6.634,0,0,1-6.371-4.459,6.719,6.719,0,0,1,2.028-7.52,6.54,6.54,0,0,1,7.738-.614c.488.3,1.644.452.976,1.486a1.353,1.353,0,0,1-2.167.523,4.273,4.273,0,0,0-5.874,1.249,4.52,4.52,0,0,0,.788,6,4.207,4.207,0,0,0,5.1.4,1.337,1.337,0,0,1,2.16.567c.583,1-.546,1.132-1.061,1.463A5.676,5.676,0,0,1,348.35,298.086Z" transform="translate(-95.444 -213.898)"/><path class="cls-2" d="M411.036,298.085a6.644,6.644,0,0,1-6.391-4.43,6.726,6.726,0,0,1,2.123-7.634,6.564,6.564,0,0,1,7.751-.461c.443.286,1.522.466.875,1.394-.438.629-.9,1.3-2.01.641a4.32,4.32,0,0,0-5.835.864,4.567,4.567,0,0,0-.029,5.686,4.355,4.355,0,0,0,5.827.948c1.09-.639,1.585-.052,2.026.607.609.909-.417,1.083-.876,1.394A5.875,5.875,0,0,1,411.036,298.085Z" transform="translate(-95.444 -213.898)"/><path class="cls-1" d="M276.737,244.089c0,2.554-.08,5.111.029,7.66.069,1.6-.94,1.258-1.843,1.311-.981.058-1.654.03-1.633-1.337q.118-7.742,0-15.488c-.022-1.5.888-1.21,1.738-1.215.87-.005,1.788-.237,1.733,1.242C276.668,238.868,276.737,241.48,276.737,244.089Z" transform="translate(-95.444 -213.898)"/><path class="cls-1" d="M290.9,244.09c0,2.553-.074,5.108.026,7.657.062,1.584-.946,1.265-1.855,1.313-.981.053-1.67.014-1.65-1.344.072-5.1.084-10.21-.006-15.314-.026-1.5.789-1.383,1.772-1.4,1.022-.014,1.813-.039,1.745,1.429C290.813,238.982,290.9,241.538,290.9,244.09Z" transform="translate(-95.444 -213.898)"/><path class="cls-1" d="M283.794,244.076c0,2.548-.08,5.1.029,7.641.067,1.555-.888,1.3-1.817,1.345-.973.042-1.662.029-1.642-1.336q.114-7.725,0-15.451c-.024-1.642,1.054-1.172,1.891-1.25.9-.084,1.6-.043,1.562,1.243C283.733,238.868,283.794,241.473,283.794,244.076Z" transform="translate(-95.444 -213.898)"/><path class="cls-2" d="M238.7,292.569c0-1.277-.068-2.558.019-3.829.084-1.235-.359-1.768-1.607-1.605-.327.042-.668-.025-1,.011-.959.106-1.247-.333-1.248-1.254s.385-1.124,1.209-1.112q3.746.054,7.494,0c.867-.013,1.335.156,1.324,1.174-.01,1-.467,1.187-1.336,1.2-2.512.046-2.511.075-2.511,2.683,0,2.276-.041,4.553.02,6.827.026.969-.335,1.237-1.251,1.238-.885,0-1.163-.316-1.129-1.173C238.736,295.346,238.7,293.956,238.7,292.569Z" transform="translate(-95.444 -213.898)"/><path class="cls-2" d="M380.051,290.189c0,1.333.067,2.67-.021,4-.074,1.131.378,1.472,1.438,1.38.827-.072,1.669.032,2.5-.026.951-.067,1.251.321,1.258,1.253s-.414,1.116-1.217,1.1c-1.665-.035-3.333-.045-5,0-.9.026-1.283-.22-1.269-1.208.052-3.554.046-7.108,0-10.662-.011-.949.316-1.246,1.251-1.246.962,0,1.086.469,1.067,1.244C380.027,287.412,380.051,288.8,380.051,290.189Z" transform="translate(-95.444 -213.898)"/><path class="cls-2" d="M391.092,291.341c0-1.777.042-3.555-.017-5.33-.033-.971.352-1.225,1.267-1.229.98,0,1.056.5,1.049,1.26-.023,2.554.069,5.112-.04,7.662-.06,1.408.255,2.1,1.8,1.866.706-.106,1.445.028,2.163-.029.97-.078,1.229.356,1.24,1.269.012.955-.449,1.1-1.233,1.081-1.665-.031-3.333-.048-5,.007-.925.031-1.286-.259-1.25-1.227C391.139,294.9,391.092,293.118,391.092,291.341Z" transform="translate(-95.444 -213.898)"/><path class="cls-2" d="M307.772,291.3c0-1.72.022-3.441-.01-5.161-.015-.821.068-1.362,1.134-1.359,1.008,0,1.194.425,1.182,1.3-.04,2.719.024,5.439-.035,8.158-.021,1.012.3,1.41,1.321,1.326.827-.068,1.668.04,2.5-.027,1.014-.081,1.369.315,1.375,1.327s-.558,1.03-1.285,1.022c-1.665-.017-3.332-.051-5,.012-.983.037-1.227-.368-1.2-1.275C307.811,294.85,307.772,293.073,307.772,291.3Z" transform="translate(-95.444 -213.898)"/><path class="cls-2" d="M305.73,291.475c0,1.665-.028,3.33.012,4.994.021.872-.006,1.462-1.19,1.451-1.243-.012-1.119-.732-1.116-1.527q.014-4.995,0-9.99c0-.844-.155-1.642,1.193-1.631,1.433.012,1.082.947,1.094,1.708C305.749,288.144,305.731,289.81,305.73,291.475Z" transform="translate(-95.444 -213.898)"/><path class="cls-2" d="M371.7,296.839c.183,1.067-.5,1.016-1.214,1.057-.945.054-1.053-.431-1.079-1.217-.036-1.056.527-1.133,1.352-1.144C371.8,295.522,371.755,296.17,371.7,296.839Z" transform="translate(-95.444 -213.898)"/><path class="cls-2" d="M387.948,297.866c-.821.116-1.222-.134-1.214-1.063.008-.908.262-1.285,1.23-1.277.924.007,1.092.413,1.106,1.215C389.085,297.588,388.847,298.022,387.948,297.866Z" transform="translate(-95.444 -213.898)"/><path class="cls-2" d="M401.3,297.866c-.8.105-1.249-.1-1.233-1.046.014-.888.223-1.308,1.212-1.294.9.013,1.119.377,1.123,1.2S402.217,298.028,401.3,297.866Z" transform="translate(-95.444 -213.898)"/></svg>