<svg xmlns="http://www.w3.org/2000/svg" version="1.1" xmlns:xlink="http://www.w3.org/1999/xlink" xmlns:svgjs="http://svgjs.com/svgjs" width="512" height="512" x="0" y="0" viewBox="0 0 64 64" style="enable-background:new 0 0 512 512" xml:space="preserve"><g><g id="line_cp"><path d="M51,6H44.618L43.447,3.658A2.983,2.983,0,0,0,40.764,2H23.236a2.983,2.983,0,0,0-2.683,1.658L19.382,6H13a3,3,0,0,0-3,3V55a3,3,0,0,0,3,3h6.382l1.171,2.342A2.983,2.983,0,0,0,23.236,62H40.764a2.983,2.983,0,0,0,2.683-1.658L44.618,58H51a3,3,0,0,0,3-3V9A3,3,0,0,0,51,6Zm1,49a1,1,0,0,1-1,1H44a1,1,0,0,0-.9.553l-1.447,2.894a1,1,0,0,1-.894.553H23.236a1,1,0,0,1-.894-.553L20.9,56.553A1,1,0,0,0,20,56H13a1,1,0,0,1-1-1V9a1,1,0,0,1,1-1h7a1,1,0,0,0,.895-.553l1.447-2.894A1,1,0,0,1,23.236,4H40.764a1,1,0,0,1,.894.553l1.447,2.894A1,1,0,0,0,44,8h7a1,1,0,0,1,1,1Z" fill="#F6353F" data-original="#000000"></path><path d="M15,39h2a1,1,0,0,0,0-2H16V27h1a1,1,0,0,0,0-2H15a1,1,0,0,0-1,1V38A1,1,0,0,0,15,39Z" fill="#F6353F" data-original="#000000"></path><path d="M49,25H47a1,1,0,0,0,0,2h1V37H47a1,1,0,0,0,0,2h2a1,1,0,0,0,1-1V26A1,1,0,0,0,49,25Z" fill="#F6353F" data-original="#000000"></path><path d="M49,9H15a1,1,0,0,0-1,1V22a1,1,0,0,0,1,1h4a1,1,0,0,0,0-2H16V11H48V21H45a1,1,0,0,0,0,2h4a1,1,0,0,0,1-1V10A1,1,0,0,0,49,9Z" fill="#F6353F" data-original="#000000"></path><path d="M49,41H45a1,1,0,0,0,0,2h3V53H16V43h3a1,1,0,0,0,0-2H15a1,1,0,0,0-1,1V54a1,1,0,0,0,1,1H49a1,1,0,0,0,1-1V42A1,1,0,0,0,49,41Z" fill="#F6353F" data-original="#000000"></path><path d="M32,46A14,14,0,1,0,18,32,14.015,14.015,0,0,0,32,46Zm0-26A12,12,0,1,1,20,32,12.013,12.013,0,0,1,32,20Z" fill="#F6353F" data-original="#000000"></path><path d="M28,34h1.867l-.859,6.876a1,1,0,0,0,1.849.639l6-10A1,1,0,0,0,36,30H34.133l.859-6.876a1,1,0,0,0-1.849-.639l-6,10A1,1,0,0,0,28,34Zm4.42-6.423-.412,3.3A1,1,0,0,0,33,32h1.233L31.58,36.423l.412-3.3A1,1,0,0,0,31,32H29.767Z" fill="#F6353F" data-original="#000000"></path></g></g></svg>