<svg xmlns="http://www.w3.org/2000/svg" version="1.1" xmlns:xlink="http://www.w3.org/1999/xlink" xmlns:svgjs="http://svgjs.com/svgjs" width="512" height="512" x="0" y="0" viewBox="0 0 682.66669 682.66669" style="enable-background:new 0 0 512 512" xml:space="preserve" class=""><g><defs id="defs2614"><clipPath clipPathUnits="userSpaceOnUse" id="clipPath2628"><path d="M 0,512 H 512 V 0 H 0 Z" id="path2626" fill="#f6353f" data-original="#000000"></path></clipPath></defs><g id="g2616" transform="matrix(1.3333333,0,0,-1.3333333,0,682.66667)"><g id="g2618" transform="translate(353.4702,230.5)"><path d="M 0,0 H -75.47" style="stroke-linecap: round; stroke-linejoin: round; stroke-miterlimit: 10; stroke-dasharray: none; stroke-opacity: 1;" id="path2620" fill="none" stroke="#F6353F" stroke-width="15px" stroke-linecap="round" stroke-linejoin="round" stroke-miterlimit="10" stroke-dasharray="none" stroke-opacity="" data-original="#000000"></path></g><g id="g2622"><g id="g2624" clip-path="url(#clipPath2628)"><g id="g2630" transform="translate(384.1538,504.5)"><path d="m 0,0 h 21.216 c 11.39,0 20.63,-9.24 20.63,-20.63 v -232.74 c 0,-11.39 -9.24,-20.63 -20.63,-20.63 h -8.13" style="stroke-linecap: round; stroke-linejoin: round; stroke-miterlimit: 10; stroke-dasharray: none; stroke-opacity: 1;" id="path2632" fill="none" stroke="#F6353F" stroke-width="15px" stroke-linecap="round" stroke-linejoin="round" stroke-miterlimit="10" stroke-dasharray="none" stroke-opacity="" data-original="#000000"></path></g><g id="g2634" transform="translate(86,308.1284)"><path d="m 0,0 v 175.742 c 0,11.389 9.24,20.63 20.63,20.63 h 245.601" style="stroke-linecap: round; stroke-linejoin: round; stroke-miterlimit: 10; stroke-dasharray: none; stroke-opacity: 1;" id="path2636" fill="none" stroke="#F6353F" stroke-width="15px" stroke-linecap="round" stroke-linejoin="round" stroke-miterlimit="10" stroke-dasharray="none" stroke-opacity="" data-original="#000000"></path></g><g id="g2638" transform="translate(114.7598,230.5)"><path d="M 0,0 H -8.13 C -19.52,0 -28.76,9.24 -28.76,20.63 V 45.423" style="stroke-linecap: round; stroke-linejoin: round; stroke-miterlimit: 10; stroke-dasharray: none; stroke-opacity: 1;" id="path2640" fill="none" stroke="#F6353F" stroke-width="15px" stroke-linecap="round" stroke-linejoin="round" stroke-miterlimit="10" stroke-dasharray="none" stroke-opacity="" data-original="#000000"></path></g><g id="g2642" transform="translate(234,230.5)"><path d="M 0,0 H -75.47" style="stroke-linecap: round; stroke-linejoin: round; stroke-miterlimit: 10; stroke-dasharray: none; stroke-opacity: 1;" id="path2644" fill="none" stroke="#F6353F" stroke-width="15px" stroke-linecap="round" stroke-linejoin="round" stroke-miterlimit="10" stroke-dasharray="none" stroke-opacity="" data-original="#000000"></path></g><g id="g2646" transform="translate(344.9102,260.5)"><path d="M 0,0 H -66.91" style="stroke-linecap: round; stroke-linejoin: round; stroke-miterlimit: 10; stroke-dasharray: none; stroke-opacity: 1;" id="path2648" fill="none" stroke="#F6353F" stroke-width="15px" stroke-linecap="round" stroke-linejoin="round" stroke-miterlimit="10" stroke-dasharray="none" stroke-opacity="" data-original="#000000"></path></g><g id="g2650" transform="translate(125.2002,260.5)"><path d="M 0,0 H -3.59 C -6.69,0 -9.2,2.51 -9.2,5.61 v 202.78 c 0,3.1 2.51,5.61 5.61,5.61 h 268.78 c 3.1,0 5.61,-2.51 5.61,-5.61 V 5.61 C 270.8,2.51 268.29,0 265.19,0 h -3.59" style="stroke-linecap: round; stroke-linejoin: round; stroke-miterlimit: 10; stroke-dasharray: none; stroke-opacity: 1;" id="path2652" fill="none" stroke="#F6353F" stroke-width="15px" stroke-linecap="round" stroke-linejoin="round" stroke-miterlimit="10" stroke-dasharray="none" stroke-opacity="" data-original="#000000"></path></g><g id="g2654" transform="translate(234,260.5)"><path d="M 0,0 H -66.91" style="stroke-linecap: round; stroke-linejoin: round; stroke-miterlimit: 10; stroke-dasharray: none; stroke-opacity: 1;" id="path2656" fill="none" stroke="#F6353F" stroke-width="15px" stroke-linecap="round" stroke-linejoin="round" stroke-miterlimit="10" stroke-dasharray="none" stroke-opacity="" data-original="#000000"></path></g><path d="M 396,389.518 H 116 v 60 h 280 z" style="stroke-linecap: round; stroke-linejoin: round; stroke-miterlimit: 10; stroke-dasharray: none; stroke-opacity: 1;" id="path2658" fill="none" stroke="#F6353F" stroke-width="15px" stroke-linecap="round" stroke-linejoin="round" stroke-miterlimit="10" stroke-dasharray="none" stroke-opacity="" data-original="#000000"></path><g id="g2660" transform="translate(234,353.75)"><path d="M 0,0 H -50.14" style="stroke-linecap: round; stroke-linejoin: round; stroke-miterlimit: 10; stroke-dasharray: none; stroke-opacity: 1;" id="path2662" fill="none" stroke="#F6353F" stroke-width="15px" stroke-linecap="round" stroke-linejoin="round" stroke-miterlimit="10" stroke-dasharray="none" stroke-opacity="" data-original="#000000"></path></g><g id="g2664" transform="translate(365.6602,353.75)"><path d="M 0,0 H 30.34 V -60 H 11.69" style="stroke-linecap: round; stroke-linejoin: round; stroke-miterlimit: 10; stroke-dasharray: none; stroke-opacity: 1;" id="path2666" fill="none" stroke="#F6353F" stroke-width="15px" stroke-linecap="round" stroke-linejoin="round" stroke-miterlimit="10" stroke-dasharray="none" stroke-opacity="" data-original="#000000"></path></g><g id="g2668" transform="translate(234,293.75)"><path d="M 0,0 H -59.31" style="stroke-linecap: round; stroke-linejoin: round; stroke-miterlimit: 10; stroke-dasharray: none; stroke-opacity: 1;" id="path2670" fill="none" stroke="#F6353F" stroke-width="15px" stroke-linecap="round" stroke-linejoin="round" stroke-miterlimit="10" stroke-dasharray="none" stroke-opacity="" data-original="#000000"></path></g><g id="g2672" transform="translate(134.6499,293.75)"><path d="M 0,0 H -18.65 V 60 H 11.69" style="stroke-linecap: round; stroke-linejoin: round; stroke-miterlimit: 10; stroke-dasharray: none; stroke-opacity: 1;" id="path2674" fill="none" stroke="#F6353F" stroke-width="15px" stroke-linecap="round" stroke-linejoin="round" stroke-miterlimit="10" stroke-dasharray="none" stroke-opacity="" data-original="#000000"></path></g><g id="g2676" transform="translate(337.3101,293.75)"><path d="M 0,0 H -59.31" style="stroke-linecap: round; stroke-linejoin: round; stroke-miterlimit: 10; stroke-dasharray: none; stroke-opacity: 1;" id="path2678" fill="none" stroke="#F6353F" stroke-width="15px" stroke-linecap="round" stroke-linejoin="round" stroke-miterlimit="10" stroke-dasharray="none" stroke-opacity="" data-original="#000000"></path></g><g id="g2680" transform="translate(328.1401,353.75)"><path d="M 0,0 H -50.14" style="stroke-linecap: round; stroke-linejoin: round; stroke-miterlimit: 10; stroke-dasharray: none; stroke-opacity: 1;" id="path2682" fill="none" stroke="#F6353F" stroke-width="15px" stroke-linecap="round" stroke-linejoin="round" stroke-miterlimit="10" stroke-dasharray="none" stroke-opacity="" data-original="#000000"></path></g><g id="g2684" transform="translate(319.3301,73.9292)"><path d="m 0,0 -60.358,-65.131 c -1.603,-1.731 -4.341,-1.731 -5.944,0 L -126.66,0 c -0.923,0.995 -0.216,2.611 1.14,2.611 h 40.19 v 312.978 h 44 V 2.611 H -1.14 C 0.216,2.611 0.922,0.995 0,0 Z" style="stroke-linecap: round; stroke-linejoin: round; stroke-miterlimit: 10; stroke-dasharray: none; stroke-opacity: 1;" id="path2686" fill="none" stroke="#F6353F" stroke-width="15px" stroke-linecap="round" stroke-linejoin="round" stroke-miterlimit="10" stroke-dasharray="none" stroke-opacity="" data-original="#000000"></path></g><g id="g2688" transform="translate(135.4854,86.2192)"><path d="m 0,0 -83.454,-30.288 c -1.292,-0.469 -2.71,0.261 -3.079,1.584 l -23.861,85.513 c -0.554,1.983 1.522,3.675 3.353,2.733 l 34.096,-17.546 c 0,0 75.986,103.225 87.596,261.303 H 51.26 C 41.368,122.497 -33.821,21.863 -33.821,21.863 L 0.275,4.317 C 2.106,3.375 1.937,0.703 0,0 Z" style="stroke-linecap: round; stroke-linejoin: round; stroke-miterlimit: 10; stroke-dasharray: none; stroke-opacity: 1;" id="path2690" fill="none" stroke="#F6353F" stroke-width="15px" stroke-linecap="round" stroke-linejoin="round" stroke-miterlimit="10" stroke-dasharray="none" stroke-opacity="" data-original="#000000"></path></g><g id="g2692" transform="translate(418.7432,181.0757)"><path d="m 0,0 c -22.505,45.469 -50.235,117.972 -56.88,208.442 h -36.608 c 9.891,-180.801 85.08,-281.436 85.08,-281.436 l -34.095,-17.545 c -1.832,-0.942 -1.662,-3.614 0.274,-4.317 l 83.455,-30.289 c 1.291,-0.468 2.709,0.261 3.078,1.584 l 23.862,85.513 c 0.553,1.984 -1.522,3.676 -3.354,2.733 L 30.716,-52.86 c 0,0 -6.354,8.632 -15.67,24.729" style="stroke-linecap: round; stroke-linejoin: round; stroke-miterlimit: 10; stroke-dasharray: none; stroke-opacity: 1;" id="path2694" fill="none" stroke="#F6353F" stroke-width="15px" stroke-linecap="round" stroke-linejoin="round" stroke-miterlimit="10" stroke-dasharray="none" stroke-opacity="" data-original="#000000"></path></g></g></g></g></g></svg>